<?xml version="1.0" encoding="UTF-8"?>
<svg width="13px" height="12px" viewBox="0 0 13 12" version="1.1" xmlns="http://www.w3.org/2000/svg" xmlns:xlink="http://www.w3.org/1999/xlink">
    <!-- Generator: Sketch 41 (35326) - http://www.bohemiancoding.com/sketch -->
    <title>correct_min</title>
    <desc>Created with Sketch.</desc>
    <defs></defs>
    <g id="Diseños-finales" stroke="none" stroke-width="1" fill="none" fill-rule="evenodd">
        <g id="07-vender-G" transform="translate(-635.000000, -775.000000)" fill="#8994A0">
            <g id="Aplica-a-garantía" transform="translate(488.000000, 713.000000)">
                <g id="Group-3" transform="translate(52.500000, 25.000000)">
                    <g id="Group-2" transform="translate(94.000000, 5.000000)">
                        <g id="item-1" transform="translate(1.000000, 30.000000)">
                            <g id="correct-copy" transform="translate(0.000000, 2.000000)">
                                <g id="correct_min">
                                    <g id="Group">
                                        <path d="M3.53846154,5.65128205 C3.37435897,5.48717949 3.10769231,5.48717949 2.94358974,5.65128205 C2.77948718,5.81538462 2.77948718,6.08205128 2.94358974,6.24615385 L4.88205128,8.18461538 C4.96410256,8.26666667 5.06666667,8.30769231 5.17948718,8.30769231 L5.2,8.30769231 C5.31282051,8.2974359 5.42564103,8.24615385 5.50769231,8.15384615 L10.3589744,2.33846154 C10.5025641,2.16410256 10.4820513,1.8974359 10.3076923,1.74358974 C10.1333333,1.6 9.86666667,1.62051282 9.71282051,1.79487179 L5.14871795,7.26153846 L3.53846154,5.65128205 L3.53846154,5.65128205 Z" id="Shape"></path>
                                        <path d="M9.13846154,0.953846154 C6.77948718,-0.523076923 3.75384615,-0.174358974 1.78461538,1.79487179 C-0.533333333,4.11282051 -0.533333333,7.8974359 1.78461538,10.2153846 C2.94358974,11.374359 4.47179487,11.9589744 5.98974359,11.9589744 C7.50769231,11.9589744 9.03589744,11.374359 10.1948718,10.2153846 C12.174359,8.23589744 12.5128205,5.2 11.025641,2.84102564 C10.9025641,2.64615385 10.6461538,2.58461538 10.4512821,2.70769231 C10.2564103,2.83076923 10.1948718,3.08717949 10.3179487,3.28205128 C11.6,5.31282051 11.3025641,7.91794872 9.6,9.62051282 C7.61025641,11.6102564 4.35897436,11.6102564 2.36923077,9.62051282 C0.379487179,7.63076923 0.379487179,4.37948718 2.36923077,2.38974359 C4.07179487,0.697435897 6.66666667,0.4 8.6974359,1.66153846 C8.89230769,1.78461538 9.14871795,1.72307692 9.27179487,1.52820513 C9.39487179,1.33333333 9.33333333,1.07692308 9.13846154,0.953846154 L9.13846154,0.953846154 Z" id="Shape"></path>
                                    </g>
                                </g>
                            </g>
                        </g>
                    </g>
                </g>
            </g>
        </g>
    </g>
</svg>