<svg xmlns="http://www.w3.org/2000/svg" viewBox="0 0 616.24 255.16" preserveAspectRatio="xMinYMax meet"><rect width="616.24" height="255.16" rx="39.82" ry="39.82" fill="#fff"/><polygon points="415.01 170.92 408.01 170.92 408.01 166.74 426.04 166.74 426.04 170.92 419.44 170.92 419.44 192.69 415.01 192.69 415.01 170.92" fill="#646464"/><rect x="424.72" y="179.42" width="9.1" height="4.29" fill="#646464"/><path d="M447.49,179.39h16v.52c0,7.45-6,13.29-12.75,13.29a13.48,13.48,0,0,1-.13-27,12.49,12.49,0,0,1,11.66,8.15H457a7.33,7.33,0,0,0-6.44-3.76c-5.74,0-8.56,5.06-8.56,9s2.75,9,8.8,9a7.73,7.73,0,0,0,7.13-4.94H447.49Z" fill="#646464"/><path d="M499.43,170.92h3.05c2.8,0,3.7,1.23,3.7,2.91,0,2.72-3,2.72-4.09,2.72h-2.66ZM495,192.69h7.63c1.79,0,4.6-.17,6.44-1.67a7.29,7.29,0,0,0,3-6.07c0-4.45-2.54-5.86-4.16-6.46a5.25,5.25,0,0,0,2.7-5,6.7,6.7,0,0,0-2-4.78c-2.07-2-4.91-2-7.75-2H495Zm4.42-12h3.65c4,0,4.27,3,4.27,4,0,2.6-2.4,3.32-4.38,3.32h-3.54Z" fill="#646464"/><rect x="537.83" y="166.74" width="4.71" height="25.95" fill="#646464"/><path d="M479,188.63a8.87,8.87,0,0,1-8.82-9,9,9,0,0,1,8.82-9,9.22,9.22,0,0,1,9.16,9,9.1,9.1,0,0,1-9.16,9m0-22.38a13.48,13.48,0,1,0,13.55,13.38A13.33,13.33,0,0,0,479,166.24" fill="#646464"/><path d="M523.92,173.4h-.08l-3.39,8.42h6.6Zm-12.1,19.29,10.25-25.95h3.54l10.07,25.95H531l-2.4-6.6h-9.7l-2.46,6.6Z" fill="#646464"/><polygon points="546.94 166.74 551.49 166.74 562.25 183.71 562.25 166.74 566.71 166.74 566.71 192.68 562.5 192.68 551.42 174.78 551.42 192.68 546.94 192.68 546.94 166.74" fill="#646464"/><path d="M338.74,185.24c.21,2.54,2.82,3.4,4.24,3.4,1.76,0,3.74-1.26,3.74-3.21,0-2.59-2-3.43-5.06-4.65-2.21-.76-6.5-1.76-6.5-7.09,0-4.26,3.42-7.44,7.88-7.44a7.61,7.61,0,0,1,7.57,7.44h-4.44a3.08,3.08,0,0,0-3.27-3.06c-1.39,0-3.24,1.08-3.24,2.59,0,2.37,2.29,3.05,4.79,3.92,2,.7,6.78,2.08,6.78,7.78a8.17,8.17,0,0,1-8.29,8.3c-3.48,0-8.39-2.36-8.67-8Z" fill="#646464"/><rect x="376.96" y="166.74" width="4.51" height="25.94" fill="#646464"/><path d="M362.89,173.4h-.06l-3.22,8.42h6.45Zm-12.16,19.28,10.4-25.94h3.44l10.13,25.94H370l-2.47-6.61h-9.6l-2.52,6.61Z" fill="#646464"/><polygon points="385.93 166.74 390.42 166.74 401.23 183.69 401.23 166.74 405.68 166.74 405.68 192.68 401.46 192.68 390.33 174.77 390.33 192.68 385.93 192.68 385.93 166.74" fill="#646464"/><rect x="49.57" y="201.98" width="526.96" height="3.67" fill="#646464"/><path d="M49.57,49.58v51a36.2,36.2,0,0,1,41.9-2.31l31.86-42.53,28.51,19.07V49.58Z"/><path d="M108.38,128.93a36.11,36.11,0,0,1-10.24,25.23h62.18l-37-98.41L91.62,98.38a36.2,36.2,0,0,1,16.76,30.55" fill="#ffeb00"/><path d="M97.78,154.53a36.23,36.23,0,0,1-47.63,3.19c-3.42,1.18-5.39,2.56-5.39,4,0,4.35,17,7.87,38,7.87s38-3.52,38-7.87c0-3.24-9.48-6-23-7.22"/><path d="M219.91,154.13l-14.29-43.94-14.14,43.94H173.54l-28-75h23L183,123.72l14.44-44.55h16.42L228,123.72l14.75-44.55h23l-27.82,75Z"/><path d="M338.43,123.72h-55.8c2.59,9.27,9.73,14.6,19.46,14.6,7.3,0,12.62-2,15.05-6.08H338C335.23,147.74,320.63,156,302.85,156c-24.33,0-41.51-15.81-41.51-40,0-22.81,16.88-38.62,38.47-38.62C325.35,77.34,340.55,95.59,338.43,123.72ZM318,108.36c-.91-8.52-6.84-15.51-17.48-15.51-9.58,0-16.42,5.47-18.55,15.51Z"/><path d="M366,83.27c23.72-13.68,59.45-3.34,59.45,33.45,0,22.35-15.36,39.23-39.84,39.23s-39.68-16.27-39.68-38.62V49.58H366Zm0,34.82c0,12,7.45,19.46,19.61,19.46s19.61-9,19.61-20.83c0-21.9-24.78-26.46-39.22-13.53Z"/><path d="M509,123.72h-55.8c2.58,9.27,9.73,14.6,19.46,14.6,7.3,0,12.62-2,15.05-6.08h20.83C505.77,147.74,491.17,156,473.38,156c-24.33,0-41.51-15.81-41.51-40,0-22.81,16.87-38.62,38.47-38.62C495.89,77.34,511.09,95.59,509,123.72Zm-20.38-15.36c-.91-8.52-6.84-15.51-17.49-15.51-9.58,0-16.42,5.47-18.55,15.51Z"/><path d="M566.72,97.42c-9.88,0-21.44,1.82-29.65,6.69v50H517.15V91a94.74,94.74,0,0,1,49.57-13.69Z"/></svg>