<?xml version="1.0" encoding="UTF-8" standalone="no"?>
<svg
   xmlns:dc="http://purl.org/dc/elements/1.1/"
   xmlns:cc="http://creativecommons.org/ns#"
   xmlns:rdf="http://www.w3.org/1999/02/22-rdf-syntax-ns#"
   xmlns:svg="http://www.w3.org/2000/svg"
   xmlns="http://www.w3.org/2000/svg"
   xmlns:sodipodi="http://sodipodi.sourceforge.net/DTD/sodipodi-0.dtd"
   xmlns:inkscape="http://www.inkscape.org/namespaces/inkscape"
   width="20px"
   height="21px"
   viewBox="0 0 20 21"
   version="1.1"
   id="svg15"
   sodipodi:docname="fav-active-success.svg"
   inkscape:version="0.92.1 unknown">
  <metadata
     id="metadata19">
    <rdf:RDF>
      <cc:Work
         rdf:about="">
        <dc:format>image/svg+xml</dc:format>
        <dc:type
           rdf:resource="http://purl.org/dc/dcmitype/StillImage" />
        <dc:title>fav-active</dc:title>
      </cc:Work>
    </rdf:RDF>
  </metadata>
  <sodipodi:namedview
     pagecolor="#ffffff"
     bordercolor="#666666"
     borderopacity="1"
     objecttolerance="10"
     gridtolerance="10"
     guidetolerance="10"
     inkscape:pageopacity="0"
     inkscape:pageshadow="2"
     inkscape:window-width="1709"
     inkscape:window-height="926"
     id="namedview17"
     showgrid="false"
     inkscape:zoom="11.238095"
     inkscape:cx="10"
     inkscape:cy="9.7881356"
     inkscape:window-x="0"
     inkscape:window-y="30"
     inkscape:window-maximized="0"
     inkscape:current-layer="svg15" />
  <!-- Generator: Sketch 41 (35326) - http://www.bohemiancoding.com/sketch -->
  <title
     id="title2">fav-active</title>
  <desc
     id="desc4">Created with Sketch.</desc>
  <defs
     id="defs6" />
  <g
     id="Diseños-finales"
     stroke="none"
     stroke-width="1"
     fill="none"
     fill-rule="evenodd"
     style="fill:#00cc00">
    <g
       id="01-Home"
       transform="translate(-726.000000, -1084.000000)"
       fill="#EF4039"
       style="fill:#00cc00">
      <g
         id="autos"
         transform="translate(294.000000, 553.000000)"
         style="fill:#00cc00">
        <g
           id="Group-3-Copy"
           transform="translate(0.000000, 316.333333)"
           style="fill:#00cc00">
          <g
             id="Group-5"
             transform="translate(240.000000, 0.000000)"
             style="fill:#00cc00">
            <g
               id="fav-active"
               transform="translate(192.000000, 215.000000)"
               style="fill:#00cc00">
              <path
                 d="M19.9065438,8.47863248 C19.8552618,8.23931624 19.6672276,8.05128205 19.4450054,7.96581197 L13.6843216,6.03418803 L10.6073985,0.376068376 C10.4877404,0.136752137 10.2313301,0 9.97491989,0 C9.71850964,0 9.46209938,0.136752137 9.34244126,0.376068376 L6.2826122,6.01709402 L0.504834422,7.76068376 C0.265518182,7.82905983 0.0774839942,8.01709402 0.0262019429,8.25641026 C-0.0421741255,8.4957265 0.0262019429,8.75213675 0.197142114,8.94017094 L3.99201391,13.0940171 L2.41936434,18.957265 C2.35098827,19.2136752 2.43645835,19.5042735 2.64158656,19.6752137 C2.84671476,19.8632479 3.13731305,19.9145299 3.37662929,19.8119658 L9.97491989,17.1794872 L16.5732105,19.8119658 C16.6586806,19.8461538 16.7441507,19.8632479 16.8467148,19.8632479 C17.0176549,19.8632479 17.1885951,19.7948718 17.3253472,19.6752137 C17.5304754,19.4871795 17.6159455,19.2136752 17.5475695,18.957265 L15.9749199,13.0940171 L19.7356037,9.14529915 C19.8894498,8.95726496 19.9578259,8.71794872 19.9065438,8.47863248 L19.9065438,8.47863248 Z"
                 id="Shape"
                 style="fill:#00cc00" />
            </g>
          </g>
        </g>
      </g>
    </g>
  </g>
</svg>
