<?xml version="1.0" encoding="UTF-8"?>
<svg width="20px" height="20px" viewBox="0 0 20 20" version="1.1" xmlns="http://www.w3.org/2000/svg" xmlns:xlink="http://www.w3.org/1999/xlink">
    <!-- Generator: Sketch 41 (35326) - http://www.bohemiancoding.com/sketch -->
    <title>favorite</title>
    <desc>Created with Sketch.</desc>
    <defs/>
    <g id="Symbols" stroke="none" stroke-width="1" fill="none" fill-rule="evenodd">
        <g id="card-car" transform="translate(-192.000000, -215.000000)" fill="#209CEE">
            <g id="favorite" transform="translate(192.000000, 215.000000)">
                <path d="M19.9487179,8.54700855 C19.8974359,8.30769231 19.7094017,8.11965812 19.4871795,8.03418803 L13.7264957,6.1025641 L10.6495726,0.444444444 C10.5299145,0.205128205 10.2735043,0.0683760684 10.017094,0.0683760684 C9.76068376,0.0683760684 9.5042735,0.205128205 9.38461538,0.444444444 L6.32478632,6.08547009 L0.547008547,7.82905983 C0.307692308,7.8974359 0.11965812,8.08547009 0.0683760684,8.32478632 C-3.11348169e-14,8.56410256 0.0683760684,8.82051282 0.239316239,9.00854701 L4.03418803,13.1623932 L2.46153846,19.025641 C2.39316239,19.2820513 2.47863248,19.5726496 2.68376068,19.7435897 C2.88888889,19.9316239 3.17948718,19.982906 3.41880342,19.8803419 L10.017094,17.2478632 L16.6153846,19.8803419 C16.7008547,19.9145299 16.7863248,19.9316239 16.8888889,19.9316239 C17.0598291,19.9316239 17.2307692,19.8632479 17.3675214,19.7435897 C17.5726496,19.5555556 17.6581197,19.2820513 17.5897436,19.025641 L16.017094,13.1623932 L19.7777778,9.21367521 C19.9316239,9.02564103 20,8.78632479 19.9487179,8.54700855 L19.9487179,8.54700855 Z M14.7008547,12.4615385 C14.5299145,12.6495726 14.4615385,12.9059829 14.5299145,13.1452991 L15.8461538,18 L10.2905983,15.8119658 C10.2051282,15.7777778 10.1196581,15.7606838 10.017094,15.7606838 C9.93162393,15.7606838 9.82905983,15.7777778 9.74358974,15.8119658 L4.20512821,18.017094 L5.52136752,13.1623932 C5.58974359,12.9230769 5.52136752,12.6666667 5.35042735,12.4957265 L2.05128205,8.87179487 L7.02564103,7.38461538 C7.21367521,7.33333333 7.36752137,7.21367521 7.45299145,7.04273504 L10.017094,2.30769231 L12.5811966,7.04273504 C12.6666667,7.1965812 12.8034188,7.31623932 12.991453,7.38461538 L17.9487179,9.04273504 L14.7008547,12.4615385 L14.7008547,12.4615385 Z" id="Shape"/>
            </g>
        </g>
    </g>
</svg>