<svg xmlns="http://www.w3.org/2000/svg" viewBox="2425.629 379.267 28.741 65.466">
  <defs>
    <style>
      .cls-1 {
        fill: #fff;
      }
    </style>
  </defs>
  <g id="Group_83" data-name="Group 83" transform="translate(1756 -123)">
    <path id="Path_1" data-name="Path 1" class="cls-1" d="M53.253,79.479l-5.269,5.269-5.269-5.269a1.581,1.581,0,1,0-2.235,2.235L46.866,88.1a1.544,1.544,0,0,0,2.235,0l6.387-6.387a1.581,1.581,0,0,0-2.235-2.235Z" transform="translate(636.016 479.153)"/>
    <path id="Path_2" data-name="Path 2" class="cls-1" d="M55.488,68.479a1.543,1.543,0,0,0-2.235,0l-5.269,5.269-5.269-5.269a1.581,1.581,0,1,0-2.235,2.235L46.866,77.1a1.544,1.544,0,0,0,2.235,0l6.387-6.387A1.544,1.544,0,0,0,55.488,68.479Z" transform="translate(636.016 481.371)"/>
    <path id="Path_3" data-name="Path 3" class="cls-1" d="M60.741,37.741V23.371a14.371,14.371,0,1,0-28.741,0V37.741a14.371,14.371,0,0,0,28.741,0ZM46.371,48.918A11.21,11.21,0,0,1,35.193,37.741V23.371a11.177,11.177,0,0,1,22.354,0V37.741A11.21,11.21,0,0,1,46.371,48.918Z" transform="translate(637.629 493.267)"/>
    <path id="Path_4" data-name="Path 4" class="cls-1" d="M49.6,20A1.6,1.6,0,0,0,48,21.6v4.79a1.6,1.6,0,1,0,3.193,0V21.6A1.6,1.6,0,0,0,49.6,20Z" transform="translate(634.403 491.049)"/>
  </g>
</svg>
